<?xml version="1.0" encoding="UTF-8"?>
<svg version="1.1" xmlns="http://www.w3.org/2000/svg" width="512" height="512">
<path d="M0 0 C4.88023611 2.32776315 9.4832093 5.05386022 14.12109375 7.828125 C23.60746036 13.43486219 33.15685224 18.90494072 42.7902832 24.25488281 C44.7592997 25.35007742 46.70350606 26.49063356 48.62573242 27.66601562 C51.55233006 29.34266986 54.45610116 30.24912042 57.6887207 31.19335938 C64.13151492 33.41095445 69.40137004 35.7955683 73.30859375 41.578125 C77.43708472 53.69516779 75.66816763 68.30933211 75.21411133 80.87774658 C75.05879053 85.80428993 75.02396699 90.73159147 74.97851562 95.66015625 C74.87205448 105.30393191 74.63304333 114.93939035 74.30859375 124.578125 C78.23086677 122.38482558 82.15258642 120.19053848 86.07421875 117.99609375 C87.16814941 117.38439331 88.26208008 116.77269287 89.38916016 116.14245605 C97.5412314 111.57988699 105.66815791 106.97480788 113.7767334 102.3354187 C115.3002662 101.46430087 116.8257895 100.5966528 118.35351562 99.73291016 C120.48095459 98.51718888 120.48095459 98.51718888 123.01171875 96.62109375 C125.30859375 95.578125 125.30859375 95.578125 127.9453125 96 C132.85784648 98.30506821 137.46695699 101.04391362 142.12109375 103.828125 C150.70455005 108.9047166 159.33810226 113.86578162 168.05859375 118.703125 C198.1889068 135.45843805 198.1889068 135.45843805 201.30859375 138.578125 C201.40373967 141.28650586 201.43414307 143.96931013 201.42211914 146.67797852 C201.42226517 147.52668518 201.42241119 148.37539185 201.42256165 149.24981689 C201.42186223 152.06891391 201.41406853 154.88794571 201.40625 157.70703125 C201.40438592 159.65616317 201.40296197 161.60529555 201.40196228 163.5544281 C201.3981363 168.69519332 201.38830534 173.83593047 201.3772583 178.97668457 C201.3670459 184.21817648 201.36246503 189.4596729 201.35742188 194.70117188 C201.34668314 204.99350194 201.32960576 215.28581114 201.30859375 225.578125 C200.54403366 226.00142593 199.77947357 226.42472687 198.991745 226.8608551 C196.10485485 228.45989639 193.21853223 230.05995327 190.33256531 231.66065979 C189.09285557 232.34800644 187.85293287 233.03496917 186.61277771 233.72151184 C176.74953165 239.18225757 166.97872846 244.78149982 157.30859375 250.578125 C160.50641344 253.10282101 163.86024574 255.11625479 167.40234375 257.125 C167.98971313 257.45929016 168.57708252 257.79358032 169.18225098 258.13800049 C171.05625308 259.20394379 172.93231723 260.26619117 174.80859375 261.328125 C176.65589325 262.37648695 178.50273377 263.4256499 180.34924316 264.47540283 C182.04518312 265.43910685 183.74227963 266.40077472 185.43945312 267.36230469 C186.01496414 267.71384109 186.59047516 268.0653775 187.1834259 268.42756653 C189.40860276 269.69680797 189.40860276 269.69680797 192.36479187 270.710495 C196.06172505 272.30209756 198.49144979 273.68339804 201.30859375 276.578125 C203.65810629 282.62864407 203.1207964 289.56120464 203.078125 295.94140625 C203.09892977 297.85803887 203.12254984 299.77464279 203.14884949 301.69120789 C203.1890443 305.70429076 203.1834461 309.71419775 203.14770508 313.72729492 C203.10736376 318.85257334 203.19841538 323.9658384 203.32657337 329.08932209 C203.40780695 333.04764128 203.40949973 337.00310788 203.38876915 340.96208763 C203.38999612 342.84917785 203.41756186 344.73645364 203.47278786 346.62273598 C203.8363487 360.91238459 203.8363487 360.91238459 199.64992332 365.32733917 C195.57330316 368.46235503 191.12930043 370.63055089 186.41737556 372.64326763 C183.29537364 374.027302 180.43933743 375.74274467 177.5078125 377.4921875 C174.15740061 379.40493587 170.80400108 381.31234696 167.44873047 383.21655273 C166.22611991 383.91108953 165.00362761 384.60583454 163.78125 385.30078125 C163.17315491 385.64646652 162.56505981 385.99215179 161.9385376 386.34831238 C158.08644819 388.54503195 154.25861723 390.77919919 150.44483948 393.04174805 C147.89391312 394.55385699 145.33597991 396.05388418 142.77749634 397.55316162 C141.55728708 398.27279448 140.34054943 398.99834954 139.12753296 399.7300415 C137.43905954 400.74784548 135.73733503 401.7435678 134.03515625 402.73828125 C133.07174316 403.31199463 132.10833008 403.88570801 131.11572266 404.47680664 C127.61086792 405.85186315 125.90416096 405.62264732 122.30859375 404.578125 C119.39038086 403.1862793 119.39038086 403.1862793 116.3359375 401.40234375 C115.77274307 401.07708206 115.20954865 400.75182037 114.62928772 400.41670227 C112.82974611 399.37491122 111.03784181 398.32075203 109.24609375 397.265625 C106.92202823 395.91510087 104.59780473 394.56484855 102.2734375 393.21484375 C99.64503906 391.68472656 97.01664062 390.15460938 94.30859375 388.578125 C87.37859375 384.618125 80.44859375 380.658125 73.30859375 376.578125 C73.30859375 400.668125 73.30859375 424.758125 73.30859375 449.578125 C64.39859375 454.528125 55.48859375 459.478125 46.30859375 464.578125 C32.68217219 472.48120806 32.68217219 472.48120806 19.11376953 480.48339844 C15.95863151 482.36420889 12.79109296 484.22250344 9.62109375 486.078125 C8.17718262 486.95235107 8.17718262 486.95235107 6.70410156 487.84423828 C5.35783691 488.62516846 5.35783691 488.62516846 3.984375 489.421875 C2.80742065 490.12086914 2.80742065 490.12086914 1.60668945 490.83398438 C-0.69140625 491.578125 -0.69140625 491.578125 -3.13671875 490.89941406 C-5.85737218 489.49228712 -8.56417811 488.08105465 -11.2421875 486.59375 C-12.32113281 485.99530273 -13.40007812 485.39685547 -14.51171875 484.78027344 C-15.67592672 484.12981758 -16.83998554 483.47909473 -18.00390625 482.828125 C-18.5983252 482.49687622 -19.19274414 482.16562744 -19.80517578 481.82434082 C-31.25158937 475.44441019 -42.57875153 468.86818626 -53.87548828 462.22705078 C-59.25635369 459.0761608 -64.66237515 455.96841385 -70.0703125 452.86425781 C-75.58267075 449.6868605 -75.58267075 449.6868605 -76.69140625 448.578125 C-76.78577154 446.33882614 -76.80882952 444.0965075 -76.80493164 441.85522461 C-76.80507767 441.1528215 -76.80522369 440.4504184 -76.80537415 439.72673035 C-76.80467497 437.39461222 -76.79688242 435.062573 -76.7890625 432.73046875 C-76.78719833 431.11764062 -76.78577443 429.50481193 -76.78477478 427.89198303 C-76.78094948 423.63897143 -76.7711191 419.38599376 -76.7600708 415.13299561 C-76.74985694 410.7963507 -76.74527721 406.45970033 -76.74023438 402.12304688 C-76.72949684 393.60805731 -76.71242028 385.09309537 -76.69140625 376.578125 C-90.52008592 384.27720459 -104.32417851 391.98016987 -117.85351562 400.19726562 C-118.80419922 400.76251953 -119.75488281 401.32777344 -120.734375 401.91015625 C-121.9567688 402.64842651 -121.9567688 402.64842651 -123.20385742 403.40161133 C-126.1370172 404.78888162 -128.44740798 405.38589585 -131.69140625 405.578125 C-134.28662109 404.62866211 -134.28662109 404.62866211 -136.90234375 403.10546875 C-138.37985107 402.26133423 -138.37985107 402.26133423 -139.88720703 401.40014648 C-141.46091064 400.46730835 -141.46091064 400.46730835 -143.06640625 399.515625 C-144.71938721 398.56248413 -144.71938721 398.56248413 -146.40576172 397.59008789 C-149.84423783 395.60231843 -153.26828246 393.59219093 -156.69140625 391.578125 C-158.74807849 390.37914516 -160.80534718 389.18118772 -162.86328125 387.984375 C-165.83048654 386.25703332 -168.79624759 384.52745213 -171.75756836 382.79003906 C-180.00033371 377.95574088 -188.30906678 373.24399492 -196.64697266 368.57592773 C-197.55753418 368.06489502 -198.4680957 367.5538623 -199.40625 367.02734375 C-200.2118335 366.57705811 -201.01741699 366.12677246 -201.84741211 365.6628418 C-203.69140625 364.578125 -203.69140625 364.578125 -204.69140625 363.578125 C-204.78655217 360.86974414 -204.81695557 358.18693987 -204.80493164 355.47827148 C-204.80507767 354.62956482 -204.80522369 353.78085815 -204.80537415 352.90643311 C-204.80467473 350.08733609 -204.79688103 347.26830429 -204.7890625 344.44921875 C-204.78719842 342.50008683 -204.78577447 340.55095445 -204.78477478 338.6018219 C-204.7809488 333.46105668 -204.77111784 328.32031953 -204.7600708 323.17956543 C-204.7498584 317.93807352 -204.74527753 312.6965771 -204.74023438 307.45507812 C-204.72949564 297.16274806 -204.71241826 286.87043886 -204.69140625 276.578125 C-200.88251041 274.39982577 -197.07339824 272.22190542 -193.26409912 270.04431152 C-191.97261942 269.30596751 -190.68119532 268.56752623 -189.38983154 267.82897949 C-179.84651924 262.37116353 -170.28762891 256.94247307 -160.69140625 251.578125 C-163.12331686 248.86171528 -165.7397129 247.28673889 -168.92578125 245.5390625 C-169.96863281 244.96244873 -171.01148438 244.38583496 -172.0859375 243.79174805 C-173.19324219 243.18500244 -174.30054688 242.57825684 -175.44140625 241.953125 C-182.91458583 237.81595648 -190.37444075 233.67466055 -197.69140625 229.265625 C-198.30081055 228.89937012 -198.91021484 228.53311523 -199.53808594 228.15576172 C-203.54654923 225.72298202 -203.54654923 225.72298202 -204.69140625 224.578125 C-204.83440828 221.93285295 -204.91246872 219.31278449 -204.94775391 216.6652832 C-204.96235657 215.83596786 -204.97695923 215.00665253 -204.99200439 214.15220642 C-205.1181104 206.49137677 -205.1867645 198.82949464 -205.23984718 191.16784382 C-205.2756191 186.01745829 -205.32893309 180.86863342 -205.42529297 175.71899414 C-205.51810401 170.74450867 -205.56676638 165.77140476 -205.58423996 160.79610252 C-205.5983391 158.90015023 -205.62799051 157.00424689 -205.67354202 155.10878944 C-206.01218269 140.29204872 -206.01218269 140.29204872 -202.83454895 136.16854858 C-200.50088581 134.57562919 -198.33506726 133.55536471 -195.69140625 132.578125 C-194.14731079 131.66933594 -194.14731079 131.66933594 -192.57202148 130.7421875 C-191.64075439 130.23429688 -190.7094873 129.72640625 -189.75 129.203125 C-188.68354248 128.61732666 -187.61708496 128.03152832 -186.51831055 127.42797852 C-185.39980713 126.81752686 -184.28130371 126.2070752 -183.12890625 125.578125 C-180.72586063 124.25752338 -178.325282 122.93249926 -175.92578125 121.60546875 C-175.01949226 121.10429787 -175.01949226 121.10429787 -174.09489441 120.59300232 C-167.97175893 117.19645271 -161.92006519 113.68067948 -155.87890625 110.140625 C-154.3940271 109.2753418 -154.3940271 109.2753418 -152.87915039 108.39257812 C-148.65482292 105.92621391 -144.44848151 103.44261782 -140.296875 100.85546875 C-139.65403564 100.46351318 -139.01119629 100.07155762 -138.34887695 99.66772461 C-136.72221793 98.67337052 -135.10841203 97.65806758 -133.49609375 96.640625 C-130.69140625 95.578125 -130.69140625 95.578125 -128.0078125 95.99609375 C-123.08381807 98.34499569 -118.43412265 101.09223927 -113.75390625 103.890625 C-101.83809943 110.97367951 -89.77185279 117.78068951 -77.69140625 124.578125 C-77.69886368 123.56414642 -77.70632111 122.55016785 -77.71400452 121.50546265 C-77.77847054 111.94158896 -77.7955921 102.37864116 -77.76656437 92.81458092 C-77.75315706 87.89759623 -77.75633053 82.98179525 -77.79760742 78.06494141 C-77.83684343 73.31811495 -77.83224959 68.57315413 -77.79748344 63.82631302 C-77.79189183 62.0170454 -77.8019966 60.20765791 -77.82817268 58.39857101 C-78.01779744 44.25246026 -78.01779744 44.25246026 -74.823349 40.22003174 C-72.49759893 38.63370646 -70.31427727 37.58354089 -67.69140625 36.578125 C-66.66200928 35.97226562 -65.6326123 35.36640625 -64.57202148 34.7421875 C-63.64075439 34.23429687 -62.7094873 33.72640625 -61.75 33.203125 C-60.68354248 32.61732666 -59.61708496 32.03152832 -58.51831055 31.42797852 C-56.84055542 30.51230103 -56.84055542 30.51230103 -55.12890625 29.578125 C-52.72586063 28.25752338 -50.325282 26.93249926 -47.92578125 25.60546875 C-47.32158859 25.27135483 -46.71739594 24.93724091 -46.09489441 24.59300232 C-39.97175893 21.19645271 -33.92006519 17.68067948 -27.87890625 14.140625 C-26.88898682 13.56376953 -25.89906738 12.98691406 -24.87915039 12.39257812 C-20.65482292 9.92621391 -16.44848151 7.44261782 -12.296875 4.85546875 C-11.65403564 4.46351318 -11.01119629 4.07155762 -10.34887695 3.66772461 C-8.72221793 2.67337052 -7.10841203 1.65806758 -5.49609375 0.640625 C-2.69140625 -0.421875 -2.69140625 -0.421875 0 0 Z M-54.69140625 141.578125 C-54.69140625 164.348125 -54.69140625 187.118125 -54.69140625 210.578125 C-50.86440974 209.0473264 -47.53929909 207.47860962 -43.96484375 205.48828125 C-42.30618286 204.56595703 -42.30618286 204.56595703 -40.61401367 203.625 C-40.03461029 203.30080078 -39.45520691 202.97660156 -38.85824585 202.64257812 C-37.05000731 201.63145511 -35.23874591 200.62591992 -33.42700195 199.62109375 C-27.8680673 196.5297241 -22.34095727 193.39939807 -16.8984375 190.10546875 C-16.04137207 189.59040771 -15.18430664 189.07534668 -14.30126953 188.54467773 C-12.72682558 187.59147427 -11.16077229 186.62422178 -9.60498047 185.64086914 C-8.90518066 185.21797607 -8.20538086 184.79508301 -7.484375 184.359375 C-6.89164795 183.98876953 -6.2989209 183.61816406 -5.68823242 183.23632812 C-1.70498039 181.92335007 1.60242511 183.24114177 5.25854492 184.98583984 C6.27924072 185.58090332 7.29993652 186.1759668 8.3515625 186.7890625 C8.91379013 187.11343292 9.47601776 187.43780334 10.05528259 187.77200317 C11.87394784 188.82391996 13.68487826 189.88844217 15.49609375 190.953125 C16.74866423 191.67993675 18.00176071 192.40584274 19.25537109 193.13085938 C22.94635695 195.26876251 26.62835673 197.42178573 30.30859375 199.578125 C33.19212709 201.26554264 36.07587726 202.95254018 38.9621582 204.63525391 C40.57684798 205.57794052 42.18879985 206.52533679 43.79760742 207.47802734 C47.31605745 209.7656795 47.31605745 209.7656795 51.30859375 210.578125 C51.30859375 187.808125 51.30859375 165.038125 51.30859375 141.578125 C42.23471599 146.04795097 42.23471599 146.04795097 33.44921875 150.91015625 C32.48604736 151.47734375 31.52287598 152.04453125 30.53051758 152.62890625 C29.54978271 153.21027344 28.56904785 153.79164063 27.55859375 154.390625 C25.46376272 155.61626332 23.36870997 156.84152274 21.2734375 158.06640625 C17.62560201 160.20655492 13.99320818 162.36880295 10.375 164.55859375 C8.95724451 165.39879745 7.5392922 166.23866919 6.12109375 167.078125 C5.49299805 167.4697583 4.86490234 167.8613916 4.21777344 168.26489258 C2.453125 169.296875 2.453125 169.296875 -0.69140625 170.578125 C-4.4957752 169.39443784 -7.87717599 167.45845478 -11.34765625 165.5234375 C-12.44352051 164.9137915 -13.53938477 164.30414551 -14.66845703 163.67602539 C-15.842827 163.01848758 -17.01714231 162.36085214 -18.19140625 161.703125 C-19.39558191 161.03166063 -20.59984708 160.36035676 -21.80419922 159.68920898 C-30.40913245 154.88696198 -38.97641467 150.01971962 -47.50585938 145.08447266 C-48.71532227 144.38717041 -48.71532227 144.38717041 -49.94921875 143.67578125 C-50.65191895 143.26851807 -51.35461914 142.86125488 -52.07861328 142.44165039 C-53.53343411 141.49945476 -53.53343411 141.49945476 -54.69140625 141.578125 Z M73.30859375 237.578125 C73.30859375 246.488125 73.30859375 255.398125 73.30859375 264.578125 C82.21199829 259.73284736 82.21199829 259.73284736 90.99609375 254.703125 C92.01058594 254.10757813 93.02507812 253.51203125 94.0703125 252.8984375 C95.17826172 252.24488281 95.17826172 252.24488281 96.30859375 251.578125 C92.64057702 247.27699853 88.01723631 244.97427275 83.12109375 242.328125 C81.87295898 241.63976562 81.87295898 241.63976562 80.59960938 240.9375 C77.13514928 238.67848389 77.13514928 238.67848389 73.30859375 237.578125 Z M-82.3828125 240.203125 C-83.32705078 240.74453125 -84.27128906 241.2859375 -85.24414062 241.84375 C-86.23736328 242.41609375 -87.23058594 242.9884375 -88.25390625 243.578125 C-89.74954102 244.43664062 -89.74954102 244.43664062 -91.27539062 245.3125 C-93.74850037 246.73246732 -96.22044329 248.15442625 -98.69140625 249.578125 C-98.69140625 250.568125 -98.69140625 251.558125 -98.69140625 252.578125 C-95.21421903 254.58158161 -91.73433658 256.58030849 -88.25390625 258.578125 C-87.26068359 259.15046875 -86.26746094 259.7228125 -85.24414062 260.3125 C-84.29990234 260.85390625 -83.35566406 261.3953125 -82.3828125 261.953125 C-81.07098999 262.70722656 -81.07098999 262.70722656 -79.73266602 263.4765625 C-77.93132076 264.65727655 -77.93132076 264.65727655 -76.69140625 264.578125 C-76.69140625 255.668125 -76.69140625 246.758125 -76.69140625 237.578125 C-78.71771243 237.578125 -80.69066825 239.23039537 -82.3828125 240.203125 Z M-54.69140625 322.578125 C-54.69140625 331.488125 -54.69140625 340.398125 -54.69140625 349.578125 C-46.63020373 345.66491989 -38.97372487 341.83757734 -31.69140625 336.578125 C-33.93815757 334.13465972 -36.23318026 332.5309356 -39.10546875 330.87890625 C-39.94851562 330.39228516 -40.7915625 329.90566406 -41.66015625 329.40429688 C-42.53671875 328.90478516 -43.41328125 328.40527344 -44.31640625 327.890625 C-45.20070312 327.37951172 -46.085 326.86839844 -46.99609375 326.34179688 C-50.63960171 323.83431755 -50.63960171 323.83431755 -54.69140625 322.578125 Z M45.3984375 325.421875 C44.40908203 326.00839844 43.41972656 326.59492188 42.40039062 327.19921875 C41.35947266 327.81925781 40.31855469 328.43929688 39.24609375 329.078125 C37.67891602 330.00818359 37.67891602 330.00818359 36.08007812 330.95703125 C33.48842299 332.49545667 30.89799315 334.03590686 28.30859375 335.578125 C30.89016101 338.31947064 33.30134503 340.34901418 36.6015625 342.15625 C37.39626953 342.59453125 38.19097656 343.0328125 39.00976562 343.484375 C39.83025391 343.9278125 40.65074219 344.37125 41.49609375 344.828125 C42.32818359 345.28703125 43.16027344 345.7459375 44.01757812 346.21875 C47.48203822 348.47776611 47.48203822 348.47776611 51.30859375 349.578125 C51.30859375 340.668125 51.30859375 331.758125 51.30859375 322.578125 C49.22653676 322.578125 47.1109606 324.40414699 45.3984375 325.421875 Z " fill="#6FBCFE" transform="translate(257.69140625,10.421875)"/>
<path d="M0 0 C2.81839398 1.04151106 5.23049703 2.47962506 7.80615234 4.02783203 C8.89412109 4.66527344 9.98208984 5.30271484 11.10302734 5.95947266 C13.38885637 7.30936144 15.66756996 8.67137254 17.93896484 10.04541016 C19.57478516 10.99577148 19.57478516 10.99577148 21.24365234 11.96533203 C22.23413574 12.55596436 23.22461914 13.14659668 24.24511719 13.75512695 C28.04185169 15.1137405 29.5448625 14.46905272 33.15771484 12.79736328 C34.94064266 11.8263427 36.6939391 10.79917728 38.41552734 9.72314453 C39.37072266 9.13855469 40.32591797 8.55396484 41.31005859 7.95166016 C43.30272762 6.71704328 45.29228954 5.4773983 47.27880859 4.23291016 C48.23142578 3.6521875 49.18404297 3.07146484 50.16552734 2.47314453 C51.02807129 1.9360083 51.89061523 1.39887207 52.77929688 0.84545898 C55.15771484 -0.20263672 55.15771484 -0.20263672 57.16040039 -0.0378418 C59.59044771 0.9783166 61.82367336 2.16941537 64.10693359 3.48486328 C65.03699219 4.01853516 65.96705078 4.55220703 66.92529297 5.10205078 C68.3706543 5.94123047 68.3706543 5.94123047 69.84521484 6.79736328 C70.82039063 7.35681641 71.79556641 7.91626953 72.80029297 8.49267578 C80.00354305 12.64319148 80.00354305 12.64319148 81.15771484 13.79736328 C81.17079166 15.14929107 81.11453192 16.50198603 81.02978516 17.85131836 C78.43062769 40.68524152 78.43062769 40.68524152 84.24560547 61.66699219 C87.85980112 64.2062413 91.44727484 65.5275224 95.62231445 66.8894043 C98.55530774 67.95247196 100.74798285 68.80321868 103.15771484 70.79736328 C106.21011496 79.26849255 105.08745866 88.98688902 104.15771484 97.79736328 C104.76768311 97.43384766 105.37765137 97.07033203 106.00610352 96.69580078 C108.77927087 95.05166166 111.56199395 93.42442066 114.34521484 91.79736328 C115.30492187 91.22501953 116.26462891 90.65267578 117.25341797 90.06298828 C118.18476563 89.52158203 119.11611328 88.98017578 120.07568359 88.42236328 C120.92928467 87.91962891 121.78288574 87.41689453 122.66235352 86.89892578 C125.51010245 85.64180385 127.07936481 85.36180381 130.15771484 85.79736328 C132.83325195 87.09838867 132.83325195 87.09838867 135.68505859 88.89501953 C136.7246875 89.53117187 137.76431641 90.16732422 138.83544922 90.82275391 C141.00757745 92.18017137 143.17686062 93.54215217 145.34326172 94.90869141 C146.38417969 95.54355469 147.42509766 96.17841797 148.49755859 96.83251953 C149.43978271 97.42427979 150.38200684 98.01604004 151.3527832 98.62573242 C154.84431733 100.08415981 156.55086287 99.83823089 160.15771484 98.79736328 C162.70630961 97.6327392 162.70630961 97.6327392 165.12646484 96.10986328 C166.47804688 95.30935547 166.47804688 95.30935547 167.85693359 94.49267578 C168.78119141 93.93322266 169.70544922 93.37376953 170.65771484 92.79736328 C172.49623366 91.6845081 174.33986109 90.58004061 176.18896484 89.48486328 C176.99914062 88.99373047 177.80931641 88.50259766 178.64404297 87.99658203 C181.59069502 86.59079776 183.89342874 85.98594179 187.15771484 85.79736328 C189.76660156 86.78540039 189.76660156 86.78540039 192.33740234 88.32470703 C193.72958984 89.14165039 193.72958984 89.14165039 195.14990234 89.97509766 C196.57689453 90.84618164 196.57689453 90.84618164 198.03271484 91.73486328 C199.00724609 92.31171875 199.98177734 92.88857422 200.98583984 93.48291016 C203.3857642 94.9063947 205.77539442 96.34467469 208.15771484 97.79736328 C208.03819458 96.66476074 208.03819458 96.66476074 207.91625977 95.50927734 C206.42591035 78.37876417 206.42591035 78.37876417 209.15771484 70.79736328 C212.29759007 68.19899746 215.81663275 67.17628461 219.65771484 65.92236328 C224.23679591 64.30872186 227.29142029 62.79559661 230.15771484 58.79736328 C232.47246804 49.56767072 231.41268718 39.28075247 230.72607422 29.89160156 C229.85468506 15.6513889 229.85468506 15.6513889 232.33956909 12.11575317 C235.80599072 8.99328223 239.83583931 7.47620616 244.15771484 5.79736328 C246.03881096 4.65299984 247.89931108 3.47276463 249.72021484 2.23486328 C253.59199092 -0.27885306 253.59199092 -0.27885306 255.93725586 0.03710938 C258.81253697 1.02156516 261.20102679 2.46191073 263.80615234 4.02783203 C264.89412109 4.66527344 265.98208984 5.30271484 267.10302734 5.95947266 C269.38885637 7.30936144 271.66756996 8.67137254 273.93896484 10.04541016 C275.02951172 10.67898438 276.12005859 11.31255859 277.24365234 11.96533203 C278.72937744 12.85128052 278.72937744 12.85128052 280.24511719 13.75512695 C284.04185169 15.1137405 285.5448625 14.46905272 289.15771484 12.79736328 C290.94064266 11.8263427 292.6939391 10.79917728 294.41552734 9.72314453 C295.37072266 9.13855469 296.32591797 8.55396484 297.31005859 7.95166016 C299.30272762 6.71704328 301.29228954 5.4773983 303.27880859 4.23291016 C304.23142578 3.6521875 305.18404297 3.07146484 306.16552734 2.47314453 C307.02807129 1.9360083 307.89061523 1.39887207 308.77929688 0.84545898 C311.15771484 -0.20263672 311.15771484 -0.20263672 313.11352539 -0.05908203 C315.80520346 1.06863882 318.30799001 2.40134021 320.85693359 3.82470703 C321.98550781 4.453125 323.11408203 5.08154297 324.27685547 5.72900391 C324.86571533 6.06005127 325.4545752 6.39109863 326.0612793 6.73217773 C327.79180894 7.70484576 329.52645989 8.67016999 331.26123047 9.63525391 C333.55750183 10.91842637 335.84097372 12.22480325 338.11030579 13.55503845 C340.85483807 15.12956627 343.61540445 16.45919825 346.52226257 17.70619202 C357.66553607 22.80180444 357.66553607 22.80180444 360.15398979 27.79739189 C361.76924194 33.57590989 361.54163798 39.50557227 361.41552734 45.45361328 C361.42699988 47.36596226 361.44351616 49.27828695 361.46481323 51.19055176 C361.48979242 55.18706678 361.45379335 59.17709586 361.37402344 63.17285156 C361.27707932 68.2751465 361.33290596 73.362259 361.43475533 78.46399689 C361.49645946 82.40985837 361.47652953 86.35216769 361.43258286 90.29814148 C361.42131322 92.17666974 361.43491485 94.05553006 361.47473526 95.93367004 C361.70966479 110.12568064 361.70966479 110.12568064 357.49131966 114.5419426 C353.41244731 117.66929944 348.97071147 119.84280862 344.26366425 121.86080647 C341.14453245 123.24794527 338.28765764 124.96324967 335.35693359 126.71142578 C332.00652171 128.62417415 328.65312217 130.53158524 325.29785156 132.43579102 C324.075241 133.13032781 322.8527487 133.82507283 321.63037109 134.52001953 C321.022276 134.8657048 320.41418091 135.21139008 319.78765869 135.56755066 C315.93556928 137.76427023 312.10773832 139.99843747 308.29396057 142.26098633 C305.74303421 143.77309527 303.185101 145.27312246 300.62661743 146.7723999 C299.40640817 147.49203276 298.18967052 148.21758783 296.97665405 148.94927979 C295.28818063 149.96708377 293.58645612 150.96280608 291.88427734 151.95751953 C290.92086426 152.53123291 289.95745117 153.10494629 288.96484375 153.69604492 C285.45998901 155.07110143 283.75328206 154.8418856 280.15771484 153.79736328 C277.23950195 152.40551758 277.23950195 152.40551758 274.18505859 150.62158203 C273.62186417 150.29632034 273.05866974 149.97105865 272.47840881 149.63594055 C270.6788672 148.5941495 268.88696291 147.53999031 267.09521484 146.48486328 C264.77114932 145.13433915 262.44692583 143.78408683 260.12255859 142.43408203 C257.49416016 140.90396484 254.86576172 139.37384766 252.15771484 137.79736328 C245.22771484 133.83736328 238.29771484 129.87736328 231.15771484 125.79736328 C231.15771484 149.88736328 231.15771484 173.97736328 231.15771484 198.79736328 C222.24771484 203.74736328 213.33771484 208.69736328 204.15771484 213.79736328 C190.53129328 221.70044634 190.53129328 221.70044634 176.96289062 229.70263672 C173.8077526 231.58344717 170.64021406 233.44174172 167.47021484 235.29736328 C166.02630371 236.17158936 166.02630371 236.17158936 164.55322266 237.06347656 C163.65571289 237.58409668 162.75820313 238.1047168 161.83349609 238.64111328 C160.65654175 239.34010742 160.65654175 239.34010742 159.45581055 240.05322266 C157.15771484 240.79736328 157.15771484 240.79736328 154.71240234 240.11865234 C151.99174891 238.7115254 149.28494298 237.30029293 146.60693359 235.81298828 C145.52798828 235.21454102 144.44904297 234.61609375 143.33740234 233.99951172 C142.17319438 233.34905587 141.00913555 232.69833301 139.84521484 232.04736328 C139.2507959 231.7161145 138.65637695 231.38486572 138.04394531 231.0435791 C126.59753173 224.66364847 115.27036956 218.08742454 103.97363281 211.44628906 C98.5927674 208.29539908 93.18674595 205.18765214 87.77880859 202.08349609 C82.26645034 198.90609878 82.26645034 198.90609878 81.15771484 197.79736328 C81.06334955 195.55806442 81.04029157 193.31574578 81.04418945 191.07446289 C81.04404343 190.37205978 81.0438974 189.66965668 81.04374695 188.94596863 C81.04444612 186.6138505 81.05223867 184.28181129 81.06005859 181.94970703 C81.06192276 180.3368789 81.06334667 178.72405021 81.06434631 177.11122131 C81.06817161 172.85820971 81.07800199 168.60523204 81.08905029 164.35223389 C81.09926416 160.01558898 81.10384388 155.67893861 81.10888672 151.34228516 C81.11962426 142.82729559 81.13670081 134.31233365 81.15771484 125.79736328 C67.32903517 133.49644288 53.52494258 141.19940816 39.99560547 149.41650391 C39.04492188 149.98175781 38.09423828 150.54701172 37.11474609 151.12939453 C35.89235229 151.86766479 35.89235229 151.86766479 34.64526367 152.62084961 C31.71210389 154.0081199 29.40171312 154.60513413 26.15771484 154.79736328 C23.5625 153.84790039 23.5625 153.84790039 20.94677734 152.32470703 C19.96177246 151.76195068 18.97676758 151.19919434 17.96191406 150.61938477 C16.38821045 149.68654663 16.38821045 149.68654663 14.78271484 148.73486328 C13.68072754 148.09943604 12.57874023 147.46400879 11.44335938 146.80932617 C8.00488327 144.82155671 4.58083864 142.81142921 1.15771484 140.79736328 C-0.89895739 139.59838344 -2.95622608 138.400426 -5.01416016 137.20361328 C-7.98136544 135.4762716 -10.9471265 133.74669041 -13.90844727 132.00927734 C-22.15121261 127.17497916 -30.45994568 122.46323321 -38.79785156 117.79516602 C-40.16369385 117.02861694 -40.16369385 117.02861694 -41.55712891 116.24658203 C-42.3627124 115.79629639 -43.1682959 115.34601074 -43.99829102 114.88208008 C-45.84228516 113.79736328 -45.84228516 113.79736328 -46.84228516 112.79736328 C-46.93743107 110.08898242 -46.96783448 107.40617815 -46.95581055 104.69750977 C-46.95595657 103.8488031 -46.9561026 103.00009644 -46.95625305 102.12567139 C-46.95555364 99.30657437 -46.94775993 96.48754257 -46.93994141 93.66845703 C-46.93807733 91.71932512 -46.93665338 89.77019273 -46.93565369 87.82106018 C-46.93182771 82.68029496 -46.92199675 77.53955781 -46.91094971 72.39880371 C-46.9007373 67.15731181 -46.89615643 61.91581538 -46.89111328 56.67431641 C-46.88037455 46.38198634 -46.86329717 36.08967714 -46.84228516 25.79736328 C-46.0464502 25.34442398 -45.25061523 24.89148468 -44.43066406 24.42481995 C-41.42938282 22.71579788 -38.42882099 21.00552546 -35.42871094 19.29444885 C-34.13927589 18.55936133 -32.84957012 17.82474845 -31.55957031 17.09065247 C-23.23281714 12.35165752 -14.92373905 7.58962278 -6.82958984 2.45910645 C-2.36543241 -0.26017876 -2.36543241 -0.26017876 0 0 Z " fill="#FEA364" transform="translate(99.84228515625,261.20263671875)"/>
</svg>
